<!--?xml version="1.0" encoding="utf-8"?-->
<!-- Generator: Adobe Illustrator 15.0.0, SVG Export Plug-In . SVG Version: 6.00 Build 0)  -->

<svg xmlns="http://www.w3.org/2000/svg" xmlns:xlink="http://www.w3.org/1999/xlink" width="200px" height="200px" viewBox="0 0 200 200">
<g>
	<path fill="#873629" stroke="#020202" d="M57.688,89.946c-2.39-9.329,5.853-19.5,5.853-19.5s12.114,4.956,14.505,14.287
		s-5.851,19.501-5.851,19.501S60.077,99.278,57.688,89.946z" id="path-0" style="position: relative;"></path>
	<path fill="#873629" stroke="#020202" d="M128.194,113.33c-1.66-6.482,4.067-13.551,4.067-13.551s8.418,3.444,10.079,9.928
		c1.661,6.485-4.066,13.553-4.066,13.553S129.853,119.815,128.194,113.33z" id="path-1" style="position: relative;"></path>
	<path fill="#873629" stroke="#020202" d="M108.181,38.509c2.387-6.254,11.143-8.721,11.143-8.721s4.888,7.673,2.502,13.925
		c-2.386,6.255-11.142,8.723-11.142,8.723S105.793,44.761,108.181,38.509z" id="path-2" style="position: relative;"></path>
	<path fill="#C59C6D" stroke="#020202" d="M40.82,87.961c8.911,2.738,13.242,14.377,13.242,14.377s-10.117,7.202-19.026,4.467
		c-8.915-2.735-13.243-14.374-13.243-14.374S31.909,85.224,40.82,87.961z" id="path-3" style="position: relative;"></path>
	<path fill="#F3D315" stroke="#020202" stroke-miterlimit="10" d="M36.392,117.636c-6.43,6.431-4.908,18.698-4.342,22.078
		l26.419-26.42C55.091,112.729,42.822,111.207,36.392,117.636z" id="path-4" style="position: relative;"></path>
	<path fill="#F79421" stroke="#020202" d="M55.196,136.44c6.43-6.431,4.909-18.698,4.343-22.076l-26.422,26.419
		C36.497,141.35,48.765,142.872,55.196,136.44z" id="path-5" style="position: relative;"></path>
	<path fill="#F3D315" stroke="#020202" stroke-miterlimit="10" d="M125.215,15.694c0.026,6.878,7.424,12.598,9.54,14.094
		l-0.11-28.26C132.542,3.041,125.188,8.817,125.215,15.694z" id="path-6" style="position: relative;"></path>
	<path fill="#F79421" stroke="#020202" d="M145.329,15.617c-0.026-6.879-7.424-12.598-9.539-14.093l0.108,28.261
		C138.003,28.272,145.355,22.496,145.329,15.617z" id="path-7" style="position: relative;"></path>
	<path fill="#95B746" stroke="#020202" d="M103.761,51.247c-2.7-10.417-16.127-16.23-19.911-17.682L94.939,76.37
		C97.546,73.262,106.457,61.664,103.761,51.247z" id="path-8" style="position: relative;"></path>
	<path fill="#F79421" stroke="#020202" d="M73.295,59.139c2.698,10.418,16.124,16.231,19.908,17.681L82.116,34.013
		C79.511,37.119,70.594,48.717,73.295,59.139z" id="path-9" style="position: relative;"></path>
	<path fill="#873629" stroke="#020202" d="M150.097,71.727c4.076-7.257-0.299-17.688-1.633-20.525l-16.743,29.81
		C134.837,80.675,146.019,78.981,150.097,71.727z" id="path-10" style="position: relative;"></path>
	<path fill="#F3D315" stroke="#020202" stroke-miterlimit="10" d="M128.881,59.807c-4.075,7.255,0.298,17.689,1.632,20.524
		l3.49-6.214l-5.022-14.466C128.949,59.707,128.91,59.753,128.881,59.807z" id="path-11" style="position: relative;"></path>
	<path fill="#F3D315" stroke="#020202" stroke-miterlimit="10" d="M130.237,57.902l4.919,14.162l5.15-9.165l-3.372-9.711
		C134.447,54.283,132.021,55.799,130.237,57.902z" id="path-12" style="position: relative;"></path>
	<path fill="#F3D315" stroke="#020202" stroke-miterlimit="10" d="M147.259,50.521c-1.538,0.166-5.043,0.674-8.687,2.013
		l2.885,8.312L147.259,50.521z" id="path-13" style="position: relative;"></path>
	<path fill="#F3D315" stroke="#020202" stroke-miterlimit="10" d="M154.816,144.449c6.849,0.484,13.088-6.452,14.734-8.444
		l-28.13-1.992C142.77,136.219,147.97,143.962,154.816,144.449z" id="path-14" style="position: relative;"></path>
	<path fill="#F79421" stroke="#020202" d="M156.236,124.429c-6.847-0.486-13.09,6.45-14.733,8.443l5.863,0.416l9.021-8.84
		C156.335,124.444,156.287,124.432,156.236,124.429z" id="path-15" style="position: relative;"></path>
	<path fill="#F79421" stroke="#020202" d="M158.135,124.771l-8.831,8.655l8.649,0.613l6.056-5.935
		C162.316,126.636,160.331,125.359,158.135,124.771z" id="path-16" style="position: relative;"></path>
	<path fill="#F79421" stroke="#020202" d="M169.634,134.866c-0.666-1.089-2.277-3.524-4.56-5.771l-5.185,5.079L169.634,134.866z" id="path-17" style="position: relative;"></path>
	<polygon fill="#5D442F" stroke="#020202" stroke-miterlimit="10" points="107.802,180.745 105.694,153.084 141.293,130.134 
		138.867,127.304 105.553,142.385 105.042,103.204 126.736,84.039 123.098,84.039 104.914,93.487 104.902,92.53 103.736,91.417 
		149.304,22.365 147.214,20.952 99.365,87.244 96.006,84.039 94.831,121.501 63.66,104.66 60.828,106.683 94.642,127.545 
		90.415,179.938 85.562,197 113.059,197 	"></polygon>
	<path fill="#DB784D" stroke="#020202" stroke-miterlimit="10" d="M110.832,25.346c0.142-0.89-0.138-1.817-0.635-2.487
		c-0.484-0.652-1.274-1.108-2.141-1.246c-0.867-0.138-1.739,0.04-2.401,0.512c0.163-0.306,0.448-0.54,0.506-0.902
		c0.142-0.89-0.198-1.802-0.694-2.471c-0.483-0.652-1.277-0.946-2.143-1.084c-0.889-0.141-1.768-0.11-2.438,0.387
		c-0.652,0.483-1.002,1.283-1.14,2.148c-0.084,0.522-0.068,1.165,0.086,1.635c-0.439-0.383-1.044-0.699-1.662-0.797
		c-0.889-0.142-1.827-0.125-2.498,0.371c-0.653,0.483-1.178,1.315-1.315,2.182c-0.131,0.821,0.258,1.61,0.679,2.256
		c0.415,0.634,0.869,1.203,1.638,1.418c-0.507,0.472-0.703,1.062-0.82,1.8c-0.141,0.889-0.064,1.842,0.431,2.512
		c0.484,0.652,1.332,1.11,2.197,1.248c0.668,0.105,1.273-0.207,1.84-0.478c0.58-0.276,1.123-0.574,1.451-1.139
		c0.125,0.668,0.422,1.291,0.904,1.751c0.455,0.438,1.094,0.652,1.765,0.758c0.89,0.142,1.65-0.169,2.321-0.666
		c0.652-0.483,1.277-1.079,1.416-1.944c0.102-0.64-0.152-1.231-0.398-1.779c-0.192-0.432-0.395-0.873-0.719-1.205
		c0.877,0.125,1.772-0.184,2.433-0.673C110.148,26.968,110.695,26.211,110.832,25.346z" id="path-18" style="position: relative;"></path>
	<path fill="#F7EDDA" stroke="#020202" stroke-width="0.2193" stroke-linecap="round" d="M100.668,25.963
		c-0.145,0.91,0.471,1.756,1.382,1.901c0.911,0.145,1.783-0.465,1.928-1.375c0.146-0.908-0.495-1.762-1.406-1.906
		S100.813,25.055,100.668,25.963z" id="path-19" style="position: relative;"></path>
	<path fill="#175868" stroke="#020202" stroke-miterlimit="10" d="M144.85,87.664c0.108-0.684-0.106-1.398-0.488-1.913
		c-0.373-0.502-0.981-0.853-1.646-0.959c-0.668-0.106-1.339,0.03-1.849,0.395c0.126-0.236,0.346-0.416,0.39-0.694
		c0.108-0.685-0.152-1.387-0.534-1.901c-0.372-0.502-0.982-0.729-1.648-0.834c-0.684-0.108-1.36-0.086-1.876,0.298
		c-0.502,0.371-0.771,0.986-0.877,1.652c-0.064,0.402-0.053,0.896,0.066,1.258c-0.338-0.295-0.804-0.538-1.278-0.613
		c-0.685-0.109-1.406-0.097-1.922,0.285c-0.502,0.373-0.906,1.012-1.013,1.679c-0.101,0.632,0.199,1.239,0.522,1.735
		c0.319,0.488,0.669,0.926,1.261,1.092c-0.391,0.362-0.541,0.816-0.631,1.384c-0.108,0.685-0.049,1.417,0.332,1.933
		c0.372,0.502,1.023,0.854,1.69,0.96c0.513,0.082,0.979-0.158,1.415-0.367c0.446-0.212,0.864-0.441,1.117-0.876
		c0.096,0.515,0.324,0.993,0.695,1.348c0.35,0.336,0.841,0.502,1.357,0.583c0.684,0.108,1.27-0.13,1.785-0.513
		c0.502-0.372,0.983-0.83,1.091-1.496c0.078-0.491-0.118-0.947-0.307-1.369c-0.149-0.331-0.305-0.671-0.554-0.927
		c0.675,0.096,1.363-0.142,1.872-0.518C144.323,88.912,144.744,88.33,144.85,87.664z" id="path-20" style="position: relative;"></path>
	<path fill="#FFFFFF" stroke="#020202" d="M137.029,88.14c-0.111,0.7,0.362,1.351,1.063,1.463c0.7,0.11,1.372-0.358,1.483-1.059
		c0.111-0.698-0.381-1.355-1.082-1.467S137.141,87.441,137.029,88.14z" id="path-21" style="position: relative;"></path>
	<path fill="#873629" stroke="#020202" d="M79.474,127.174c-0.206-0.72-1.12-1.265-2.247-1.368
		c-0.752-0.068-1.657,0.089-2.562,0.347c-0.37,0.107-0.804,0.352-1.132,0.499c0.157-0.383,0.31-0.884,0.402-1.325
		c0.192-0.925,0.357-1.813,0.207-2.55c-0.209-1.024-0.834-1.606-1.545-1.754c-0.718-0.149-1.441,0.21-2.045,1.085
		c-0.423,0.611-0.744,1.412-0.934,2.321c-0.108,0.52-0.19,1.022-0.184,1.497c-0.352-0.275-0.761-0.526-1.207-0.74
		c-0.82-0.396-1.649-0.643-2.381-0.665c-1.013-0.026-1.885,0.31-2.199,0.964c-0.316,0.654,0.002,1.52,0.66,2.294
		c0.472,0.556,1.133,1.104,1.952,1.499c0.333,0.159,0.783,0.276,1.114,0.375c-0.396,0.346-0.867,0.764-1.213,1.246
		c-0.57,0.79-0.958,1.614-1.132,2.367c-0.247,1.049-0.193,2.063,0.397,2.485c0.6,0.435,1.621,0.18,2.555-0.414
		c0.642-0.409,1.276-1.041,1.83-1.814c0.291-0.401,0.457-0.679,0.647-1.088c0.115,0.577,0.269,1.115,0.575,1.722
		c0.437,0.867,1.046,1.619,1.636,2.116c0.809,0.684,1.761,0.881,2.406,0.556c0.665-0.335,0.859-1.249,0.764-2.354
		c-0.065-0.746-0.104-1.652-0.521-2.48c-0.232-0.458-0.55-0.777-0.835-1.142c0.484-0.039,0.915-0.201,1.433-0.351
		c0.938-0.269,1.798-0.607,2.407-1.088C79.176,128.738,79.674,127.874,79.474,127.174z" id="path-22" style="position: relative;"></path>
	<path fill="#B8CCDD" stroke="#020202" stroke-width="0.4206" d="M69.665,128.97c-0.162,0.781,0.359,1.525,1.139,1.687
		c0.779,0.163,1.556-0.312,1.718-1.092c0.162-0.779-0.351-1.572-1.131-1.733C70.613,127.669,69.827,128.191,69.665,128.97z" id="path-23" style="position: relative;"></path>
	<g>
		<path fill-rule="evenodd" clip-rule="evenodd" fill="#F79421" stroke="#020202" d="M122.538,124.443
			c0.273,1.791-0.492,2.734-1.246,3.685c0.104,0.313,0.639,0.1,0.791,0.352c0.292,1.779-0.327,3.205-1.952,3.107
			c-0.349,2.007-2.52,3.08-3.991,1.051c-0.841,1.615-4.78,1.423-3.46-1.16c-2.898,1.109-2.479-2.417-0.996-3.459
			c-2.57-0.127-1.416-3.703,0.446-3.063c-0.093-0.647-0.75-0.602-0.876-1.206c0.012-1.217,2.078-1.267,2.422-0.567
			c0.844-0.253-0.293-2.373,0.927-2.574c0.629,0.149,0.906,0.729,1.304,1.162c0.474-0.56,0.46-1.34,1.269-1.313
			c0.736,0.024,1.004,1.045,1.144,1.718c0.51-0.09,0.578-0.896,1.185-1.09c1.341-0.426,2.362,0.588,2.383,2.239
			c-0.085,0.255-0.386,0.339-0.479,0.589C121.577,124.341,122.314,124.077,122.538,124.443L122.538,124.443z" id="path-24" style="position: relative;"></path>
	</g>
	<path fill-rule="evenodd" clip-rule="evenodd" fill="#FFE79D" stroke="#020202" d="M119.57,126.037
		c0.621,2.282-2.279,5.921-5.099,3.965c-1.608-1.116-1.923-4.497,0.092-5.509C116.676,123.433,119.085,124.25,119.57,126.037
		L119.57,126.037z" id="path-25" style="position: relative;"></path>
	<g>
		<g>
			<path fill-rule="evenodd" clip-rule="evenodd" fill="#F79421" stroke="#020202" d="M170.414,23.816
				c0.366,2.397-0.658,3.659-1.667,4.932c0.139,0.419,0.854,0.134,1.058,0.471c0.393,2.382-0.437,4.29-2.611,4.16
				c-0.468,2.685-3.374,4.121-5.343,1.405c-1.125,2.162-6.399,1.905-4.631-1.553c-3.881,1.485-3.317-3.234-1.335-4.629
				c-3.439-0.171-1.894-4.958,0.599-4.101c-0.124-0.867-1.005-0.806-1.174-1.614c0.016-1.63,2.783-1.696,3.243-0.761
				c1.128-0.338-0.394-3.176,1.239-3.445c0.842,0.2,1.214,0.977,1.745,1.556c0.635-0.749,0.617-1.794,1.698-1.759
				c0.987,0.033,1.344,1.4,1.532,2.299c0.682-0.12,0.773-1.2,1.584-1.458c1.796-0.569,3.163,0.788,3.189,2.997
				c-0.113,0.341-0.516,0.454-0.643,0.788C169.129,23.679,170.115,23.326,170.414,23.816L170.414,23.816z M163.748,32.139
				c2.004-0.799,3.724-4.22,3.28-6.104c-0.634-2.716-4.925-4.636-8.031-2.365C154.975,26.609,158.665,34.172,163.748,32.139
				L163.748,32.139z" id="path-26" style="position: relative;"></path>
			<path fill="#F79421" stroke="#020202" d="M153.852,26.74c0.001-1.142,0.849-2.377,2.04-2.38l0,0c0.175,0,0.358,0.027,0.544,0.085
				l0,0c-0.142-0.771-0.979-0.731-1.164-1.551l0,0v-0.004v-0.003c0.012-0.981,0.981-1.407,1.865-1.406l0,0
				c0.621,0.001,1.216,0.204,1.435,0.6l0,0c0.328-0.116,0.403-0.483,0.404-0.959l0,0c0-0.341-0.039-0.728-0.039-1.094l0,0
				c-0.003-0.654,0.129-1.266,0.85-1.384l0,0l0.009-0.001l0.007,0.001c0.847,0.203,1.223,0.967,1.734,1.535l0,0
				c0.288-0.354,0.438-0.776,0.641-1.118l0,0c0.205-0.352,0.478-0.623,1.007-0.621l0,0c0.018,0,0.036,0,0.055,0l0,0
				c1.013,0.042,1.367,1.396,1.559,2.294l0,0c0.611-0.134,0.723-1.18,1.544-1.451l0,0c0.28-0.09,0.551-0.133,0.809-0.133l0,0
				c1.415,0,2.409,1.286,2.43,3.166l0,0v0.007l-0.002,0.007c-0.125,0.356-0.518,0.472-0.638,0.773l0,0
				c0.109,0.251,0.388,0.306,0.697,0.351l0,0c0.31,0.046,0.646,0.076,0.81,0.343l0,0l0.004,0.006l0.002,0.008
				c0.052,0.342,0.076,0.661,0.076,0.962l0,0c0.001,1.803-0.876,2.896-1.738,3.982l0,0c0.065,0.167,0.249,0.199,0.466,0.222l0,0
				c0.218,0.024,0.463,0.031,0.582,0.222l0,0l0.004,0.007l0.001,0.007c0.063,0.382,0.095,0.751,0.095,1.103l0,0
				c0,0.892-0.204,1.668-0.626,2.223l0,0c-0.42,0.556-1.06,0.887-1.913,0.886l0,0c-0.057,0-0.115,0-0.174-0.004l0,0
				c-0.304,1.67-1.547,2.859-2.93,2.86l0,0c-0.828,0-1.7-0.428-2.439-1.424l0,0c-0.501,0.889-1.685,1.353-2.777,1.354l0,0
				c-1.169-0.003-2.255-0.541-2.256-1.7l0,0c0-0.35,0.099-0.752,0.319-1.209l0,0c-0.481,0.176-0.894,0.255-1.245,0.255l0,0
				c-0.559,0-0.961-0.202-1.218-0.53l0,0c-0.259-0.328-0.372-0.777-0.372-1.267l0,0c0.001-1.109,0.582-2.441,1.473-3.124l0,0
				c-1.364-0.105-1.928-0.97-1.928-1.886l0,0C153.852,26.746,153.852,26.743,153.852,26.74L153.852,26.74z" id="path-27" style="position: relative;"></path>
		</g>
		<path fill-rule="evenodd" clip-rule="evenodd" fill="#4A6C85" stroke="#020202" d="M159.618,31.257
			c3.772,2.618,7.655-2.252,6.825-5.308c-0.65-2.392-3.876-3.485-6.703-2.066C157.043,25.237,157.466,29.762,159.618,31.257
			L159.618,31.257z" id="path-28" style="position: relative;"></path>
		<path fill-rule="evenodd" clip-rule="evenodd" fill="#F7EDDA" stroke="#020202" stroke-width="0.2193" stroke-linecap="round" d="
			M166.443,25.949c0.83,3.056-3.053,7.926-6.825,5.308c-2.152-1.495-2.575-6.02,0.122-7.374
			C162.567,22.464,165.793,23.558,166.443,25.949L166.443,25.949z" id="path-29" style="position: relative;"></path>
	</g>
</g>
</svg>
