<?xml version="1.0" encoding="UTF-8" standalone="no"?>
<!DOCTYPE svg PUBLIC "-//W3C//DTD SVG 1.1//EN" "http://www.w3.org/Graphics/SVG/1.1/DTD/svg11.dtd">
<svg version="1.1" xmlns="http://www.w3.org/2000/svg" xmlns:xlink="http://www.w3.org/1999/xlink" preserveAspectRatio="xMidYMid meet" viewBox="0 0 200 200"><defs><path d="M65.12 68.49C65.12 73.54 61.02 77.63 55.98 77.63C50.93 77.63 46.84 73.54 46.84 68.49C46.84 63.45 50.93 59.35 55.98 59.35C61.02 59.35 65.12 63.45 65.12 68.49Z" id="a1DWZ6oRAJ"></path><path d="M102.32 133.51C102.32 138.55 98.23 142.65 93.18 142.65C88.14 142.65 84.04 138.55 84.04 133.51C84.04 128.46 88.14 124.37 93.18 124.37C98.23 124.37 102.32 128.46 102.32 133.51Z" id="b40q1GDzSi"></path><path d="" id="be13gTta9"></path><path d="M92 68.49L93.18 68.49L93.18 131.51L92 131.51L92 68.49Z" id="aOLzuloug"></path><path d="M93 69.41L57.57 69.41L57.57 67.58L93 67.58L93 69.41Z" id="d3P3xOaFFv"></path><path d="M102.32 100C102.32 105.04 98.23 109.14 93.18 109.14C88.14 109.14 84.04 105.04 84.04 100C84.04 94.96 88.14 90.86 93.18 90.86C98.23 90.86 102.32 94.96 102.32 100Z" id="ea48wJmwad"></path><path d="M137.97 68.49C137.97 73.54 133.87 77.63 128.83 77.63C123.78 77.63 119.69 73.54 119.69 68.49C119.69 63.45 123.78 59.35 128.83 59.35C133.87 59.35 137.97 63.45 137.97 68.49Z" id="dM5xQH3q"></path><path d="M122 69.41L86.57 69.41L86.57 67.58L122 67.58L122 69.41Z" id="dxIoxGARg"></path><path d="M138 101.41L102.57 101.41L102.57 99.58L138 99.58L138 101.41Z" id="b3QJys4pI"></path><path d="M146 138.41L110.57 138.41L110.57 136.58L146 136.58L146 138.41Z" id="b8rjc7tDZS"></path><path d="M139.18 102.14L136.6 100.27L110.99 135.54L113.57 137.41L139.18 102.14Z" id="a3wTZXZra5"></path><path d="M147.14 100.49C147.14 105.54 143.04 109.63 138 109.63C132.96 109.63 128.86 105.54 128.86 100.49C128.86 95.45 132.96 91.35 138 91.35C143.04 91.35 147.14 95.45 147.14 100.49Z" id="cEFOlNUzx"></path><path d="M121.42 136.47C121.42 141.52 117.32 145.61 112.28 145.61C107.24 145.61 103.14 141.52 103.14 136.47C103.14 131.43 107.24 127.33 112.28 127.33C117.32 127.33 121.42 131.43 121.42 136.47Z" id="c32dgeVoff"></path><path d="M155.14 138.41C155.14 143.45 151.04 147.55 146 147.55C140.96 147.55 136.86 143.45 136.86 138.41C136.86 133.36 140.96 129.27 146 129.27C151.04 129.27 155.14 133.36 155.14 138.41Z" id="a50qzTXMVd"></path><path d="M195.3 100C195.3 152.52 152.77 195.16 100.38 195.16C48 195.16 5.47 152.52 5.47 100C5.47 47.48 48 4.84 100.38 4.84C152.77 4.84 195.3 47.48 195.3 100Z" id="a2YEN7wcah"></path></defs><g visibility="inherit"><g visibility="inherit"><g visibility="inherit"><use xlink:href="#a1DWZ6oRAJ" opacity="1" fill="#fa7252" fill-opacity="1"></use></g><g visibility="inherit"><use xlink:href="#b40q1GDzSi" opacity="1" fill="#fa7252" fill-opacity="1"></use></g><g visibility="inherit"><g><use xlink:href="#be13gTta9" opacity="1" fill-opacity="0" stroke="#000000" stroke-width="1" stroke-opacity="1"></use></g></g><g visibility="inherit"><use xlink:href="#aOLzuloug" opacity="1" fill="#6b475b" fill-opacity="1"></use><g><use xlink:href="#aOLzuloug" opacity="1" fill-opacity="0" stroke="#fa7252" stroke-width="4" stroke-opacity="1"></use></g></g><g visibility="inherit"><use xlink:href="#d3P3xOaFFv" opacity="1" fill="#6b475b" fill-opacity="1"></use><g><use xlink:href="#d3P3xOaFFv" opacity="1" fill-opacity="0" stroke="#fa7252" stroke-width="4" stroke-opacity="1"></use></g></g><g visibility="inherit"><use xlink:href="#ea48wJmwad" opacity="1" fill="#fa7252" fill-opacity="1"></use></g><g visibility="inherit"><use xlink:href="#dM5xQH3q" opacity="1" fill="#fa7252" fill-opacity="1"></use></g><g visibility="inherit"><use xlink:href="#dxIoxGARg" opacity="1" fill="#6b475b" fill-opacity="1"></use><g><use xlink:href="#dxIoxGARg" opacity="1" fill-opacity="0" stroke="#fa7252" stroke-width="4" stroke-opacity="1"></use></g></g><g visibility="inherit"><use xlink:href="#b3QJys4pI" opacity="1" fill="#6b475b" fill-opacity="1"></use><g><use xlink:href="#b3QJys4pI" opacity="1" fill-opacity="0" stroke="#fa7252" stroke-width="4" stroke-opacity="1"></use></g></g><g visibility="inherit"><use xlink:href="#b8rjc7tDZS" opacity="1" fill="#6b475b" fill-opacity="1"></use><g><use xlink:href="#b8rjc7tDZS" opacity="1" fill-opacity="0" stroke="#fa7252" stroke-width="4" stroke-opacity="1"></use></g></g><g visibility="inherit"><use xlink:href="#a3wTZXZra5" opacity="1" fill="#6b475b" fill-opacity="1"></use><g><use xlink:href="#a3wTZXZra5" opacity="1" fill-opacity="0" stroke="#fa7252" stroke-width="4" stroke-opacity="1"></use></g></g><g visibility="inherit"><use xlink:href="#cEFOlNUzx" opacity="1" fill="#fa7252" fill-opacity="1"></use></g><g visibility="inherit"><use xlink:href="#c32dgeVoff" opacity="1" fill="#fa7252" fill-opacity="1"></use></g><g visibility="inherit"><use xlink:href="#a50qzTXMVd" opacity="1" fill="#fa7252" fill-opacity="1"></use></g><g visibility="inherit"><use xlink:href="#a2YEN7wcah" opacity="1" fill="#fa7252" fill-opacity="0"></use><g><use xlink:href="#a2YEN7wcah" opacity="1" fill-opacity="0" stroke="#6dcab7" stroke-width="10" stroke-opacity="1"></use></g></g></g></g></svg>